<svg width="1440" height="422" viewBox="0 0 1440 422" fill="none" xmlns="http://www.w3.org/2000/svg">
<rect width="1440" height="422" fill="#FF7900" fill-opacity="0.3"/>
<rect x="74" y="83" width="1292" height="255" rx="24" fill="#FF7900" fill-opacity="0.7"/>
<circle cx="106.5" cy="111.5" r="10.5" fill="#FF5F56"/>
<circle cx="141.5" cy="111.5" r="10.5" fill="#FFBD2E"/>
<circle cx="176.5" cy="111.5" r="10.5" fill="#27C93F"/>
<path d="M134.164 244V228.484C134.164 225.875 133.195 224.57 131.258 224.57C130.289 224.57 129.359 224.961 128.469 225.742C127.594 226.523 126.664 227.586 125.68 228.93V244H119.961V220.188H124.906L125.047 223.703C125.531 223.094 126.031 222.539 126.547 222.039C127.078 221.539 127.648 221.117 128.258 220.773C128.867 220.414 129.523 220.141 130.227 219.953C130.93 219.766 131.719 219.672 132.594 219.672C133.812 219.672 134.875 219.875 135.781 220.281C136.688 220.672 137.445 221.234 138.055 221.969C138.664 222.688 139.117 223.562 139.414 224.594C139.727 225.609 139.883 226.75 139.883 228.016V244H134.164ZM167.773 231.672C167.773 233.859 167.461 235.75 166.836 237.344C166.227 238.938 165.367 240.266 164.258 241.328C163.164 242.375 161.867 243.156 160.367 243.672C158.867 244.172 157.234 244.422 155.469 244.422C154.875 244.422 154.281 244.383 153.688 244.305C153.094 244.227 152.555 244.125 152.07 244V253.305H146.352V220.188H151.297L151.438 223.703C151.922 223.094 152.422 222.539 152.938 222.039C153.469 221.539 154.039 221.117 154.648 220.773C155.258 220.414 155.914 220.141 156.617 219.953C157.32 219.766 158.109 219.672 158.984 219.672C160.391 219.672 161.641 219.953 162.734 220.516C163.828 221.078 164.742 221.883 165.477 222.93C166.227 223.961 166.797 225.219 167.188 226.703C167.578 228.172 167.773 229.828 167.773 231.672ZM161.773 231.906C161.773 230.594 161.68 229.477 161.492 228.555C161.305 227.633 161.031 226.875 160.672 226.281C160.328 225.688 159.898 225.258 159.383 224.992C158.883 224.711 158.305 224.57 157.648 224.57C156.68 224.57 155.75 224.961 154.859 225.742C153.984 226.523 153.055 227.586 152.07 228.93V239.336C152.523 239.508 153.078 239.648 153.734 239.758C154.406 239.867 155.086 239.922 155.773 239.922C156.68 239.922 157.5 239.734 158.234 239.359C158.984 238.984 159.617 238.453 160.133 237.766C160.664 237.078 161.07 236.242 161.352 235.258C161.633 234.258 161.773 233.141 161.773 231.906ZM189.547 244V227.781C189.547 227.188 189.531 226.672 189.5 226.234C189.469 225.781 189.406 225.406 189.312 225.109C189.219 224.812 189.078 224.594 188.891 224.453C188.719 224.297 188.477 224.219 188.164 224.219C187.68 224.219 187.203 224.547 186.734 225.203C186.266 225.859 185.734 226.977 185.141 228.555V244H180.242V227.781C180.242 227.188 180.227 226.672 180.195 226.234C180.164 225.781 180.102 225.406 180.008 225.109C179.914 224.812 179.773 224.594 179.586 224.453C179.398 224.297 179.148 224.219 178.836 224.219C178.43 224.219 177.977 224.547 177.477 225.203C176.977 225.859 176.422 226.977 175.812 228.555V244H170.867V220.188H175.109L175.203 223.656C175.547 222.953 175.891 222.352 176.234 221.852C176.578 221.352 176.945 220.945 177.336 220.633C177.727 220.305 178.141 220.07 178.578 219.93C179.031 219.789 179.539 219.719 180.102 219.719C181.43 219.719 182.438 220.07 183.125 220.773C183.828 221.461 184.227 222.422 184.32 223.656C184.695 222.953 185.062 222.352 185.422 221.852C185.797 221.352 186.18 220.945 186.57 220.633C186.977 220.305 187.406 220.07 187.859 219.93C188.328 219.789 188.844 219.719 189.406 219.719C191.141 219.719 192.422 220.328 193.25 221.547C194.078 222.75 194.492 224.539 194.492 226.914V244H189.547ZM239.539 213.672C239.539 214.188 239.445 214.672 239.258 215.125C239.07 215.578 238.805 215.977 238.461 216.32C238.133 216.648 237.742 216.914 237.289 217.117C236.836 217.305 236.344 217.398 235.812 217.398C235.281 217.398 234.781 217.305 234.312 217.117C233.859 216.914 233.461 216.648 233.117 216.32C232.789 215.977 232.531 215.578 232.344 215.125C232.156 214.672 232.062 214.188 232.062 213.672C232.062 213.156 232.156 212.672 232.344 212.219C232.531 211.766 232.789 211.367 233.117 211.023C233.461 210.68 233.859 210.414 234.312 210.227C234.781 210.023 235.281 209.922 235.812 209.922C236.344 209.922 236.836 210.023 237.289 210.227C237.742 210.414 238.133 210.68 238.461 211.023C238.805 211.367 239.07 211.766 239.258 212.219C239.445 212.672 239.539 213.156 239.539 213.672ZM233.211 224.641H226.484V220.188H239.07V239.547H245.938V244H225.664V239.547H233.211V224.641ZM266.117 244V228.484C266.117 225.875 265.148 224.57 263.211 224.57C262.242 224.57 261.312 224.961 260.422 225.742C259.547 226.523 258.617 227.586 257.633 228.93V244H251.914V220.188H256.859L257 223.703C257.484 223.094 257.984 222.539 258.5 222.039C259.031 221.539 259.602 221.117 260.211 220.773C260.82 220.414 261.477 220.141 262.18 219.953C262.883 219.766 263.672 219.672 264.547 219.672C265.766 219.672 266.828 219.875 267.734 220.281C268.641 220.672 269.398 221.234 270.008 221.969C270.617 222.688 271.07 223.562 271.367 224.594C271.68 225.609 271.836 226.75 271.836 228.016V244H266.117ZM297.945 236.992C297.945 238.352 297.641 239.516 297.031 240.484C296.438 241.438 295.641 242.219 294.641 242.828C293.656 243.422 292.531 243.852 291.266 244.117C290.016 244.398 288.734 244.539 287.422 244.539C285.672 244.539 284.094 244.453 282.688 244.281C281.281 244.125 279.953 243.891 278.703 243.578V238.422C280.172 239.031 281.633 239.477 283.086 239.758C284.555 240.023 285.938 240.156 287.234 240.156C288.734 240.156 289.852 239.922 290.586 239.453C291.336 238.969 291.711 238.344 291.711 237.578C291.711 237.219 291.633 236.891 291.477 236.594C291.32 236.297 291.023 236.016 290.586 235.75C290.164 235.469 289.562 235.188 288.781 234.906C288 234.609 286.977 234.281 285.711 233.922C284.539 233.594 283.508 233.227 282.617 232.82C281.742 232.398 281.016 231.906 280.438 231.344C279.859 230.781 279.422 230.133 279.125 229.398C278.844 228.648 278.703 227.773 278.703 226.773C278.703 225.805 278.922 224.891 279.359 224.031C279.797 223.172 280.445 222.422 281.305 221.781C282.18 221.125 283.266 220.609 284.562 220.234C285.859 219.859 287.375 219.672 289.109 219.672C290.609 219.672 291.938 219.75 293.094 219.906C294.25 220.062 295.273 220.234 296.164 220.422V225.086C294.805 224.648 293.523 224.344 292.32 224.172C291.133 223.984 289.953 223.891 288.781 223.891C287.609 223.891 286.664 224.102 285.945 224.523C285.242 224.945 284.891 225.531 284.891 226.281C284.891 226.641 284.961 226.961 285.102 227.242C285.242 227.523 285.516 227.797 285.922 228.062C286.344 228.328 286.922 228.609 287.656 228.906C288.406 229.188 289.391 229.5 290.609 229.844C291.984 230.234 293.141 230.656 294.078 231.109C295.016 231.547 295.766 232.047 296.328 232.609C296.906 233.172 297.32 233.812 297.57 234.531C297.82 235.25 297.945 236.07 297.945 236.992ZM324.336 243.766C323.305 244 322.266 244.188 321.219 244.328C320.172 244.469 319.18 244.539 318.242 244.539C316.68 244.539 315.328 244.375 314.188 244.047C313.062 243.719 312.125 243.219 311.375 242.547C310.641 241.875 310.094 241.023 309.734 239.992C309.391 238.945 309.219 237.703 309.219 236.266V224.641H302.82V220.188H309.219V214.094L315.078 212.57V220.188H324.336V224.641H315.078V235.844C315.078 237.203 315.391 238.234 316.016 238.938C316.641 239.625 317.688 239.969 319.156 239.969C320.094 239.969 321.008 239.891 321.898 239.734C322.789 239.578 323.602 239.398 324.336 239.195V243.766ZM346.016 244L345.875 240.883C345.375 241.414 344.852 241.906 344.305 242.359C343.758 242.797 343.156 243.18 342.5 243.508C341.844 243.836 341.125 244.086 340.344 244.258C339.578 244.445 338.734 244.539 337.812 244.539C336.594 244.539 335.523 244.359 334.602 244C333.68 243.641 332.906 243.141 332.281 242.5C331.656 241.859 331.18 241.086 330.852 240.18C330.539 239.273 330.383 238.273 330.383 237.18C330.383 236.055 330.617 235.016 331.086 234.062C331.57 233.109 332.297 232.289 333.266 231.602C334.25 230.914 335.469 230.375 336.922 229.984C338.391 229.594 340.109 229.398 342.078 229.398H345.195V227.969C345.195 227.359 345.109 226.812 344.938 226.328C344.766 225.828 344.484 225.406 344.094 225.062C343.719 224.719 343.227 224.453 342.617 224.266C342.008 224.078 341.258 223.984 340.367 223.984C338.961 223.984 337.57 224.148 336.195 224.477C334.836 224.789 333.516 225.234 332.234 225.812V221.242C333.375 220.789 334.688 220.414 336.172 220.117C337.672 219.82 339.227 219.672 340.836 219.672C342.602 219.672 344.117 219.844 345.383 220.188C346.648 220.516 347.688 221.016 348.5 221.688C349.328 222.359 349.938 223.203 350.328 224.219C350.719 225.219 350.914 226.391 350.914 227.734V244H346.016ZM345.195 233.477H341.703C340.734 233.477 339.914 233.57 339.242 233.758C338.57 233.945 338.023 234.203 337.602 234.531C337.18 234.859 336.867 235.242 336.664 235.68C336.477 236.102 336.383 236.555 336.383 237.039C336.383 238.008 336.695 238.75 337.32 239.266C337.945 239.766 338.797 240.016 339.875 240.016C340.672 240.016 341.5 239.727 342.359 239.148C343.219 238.57 344.164 237.742 345.195 236.664V233.477ZM365.164 215.336H358.438V210.883H371.023V239.547H377.891V244H357.617V239.547H365.164V215.336ZM391.555 215.336H384.828V210.883H397.414V239.547H404.281V244H384.008V239.547H391.555V215.336ZM439.297 233.781V228.695H453.875V233.781H439.297ZM480.898 224.359C481.336 224.906 481.641 225.484 481.812 226.094C482 226.688 482.094 227.297 482.094 227.922C482.094 229.25 481.859 230.422 481.391 231.438C480.938 232.453 480.289 233.305 479.445 233.992C478.617 234.68 477.617 235.203 476.445 235.562C475.289 235.906 474.008 236.078 472.602 236.078C471.773 236.078 471.008 236 470.305 235.844C469.602 235.672 469.07 235.477 468.711 235.258C468.445 235.523 468.219 235.82 468.031 236.148C467.844 236.461 467.75 236.82 467.75 237.227C467.75 237.477 467.812 237.727 467.938 237.977C468.062 238.227 468.242 238.453 468.477 238.656C468.727 238.844 469.016 239 469.344 239.125C469.688 239.25 470.07 239.32 470.492 239.336L476.141 239.547C477.406 239.578 478.547 239.742 479.562 240.039C480.594 240.32 481.477 240.727 482.211 241.258C482.945 241.789 483.508 242.438 483.898 243.203C484.305 243.953 484.508 244.812 484.508 245.781C484.508 246.891 484.258 247.938 483.758 248.922C483.258 249.906 482.5 250.758 481.484 251.477C480.484 252.211 479.234 252.789 477.734 253.211C476.234 253.633 474.492 253.844 472.508 253.844C470.586 253.844 468.93 253.688 467.539 253.375C466.164 253.078 465.031 252.656 464.141 252.109C463.266 251.562 462.617 250.906 462.195 250.141C461.773 249.391 461.562 248.562 461.562 247.656C461.562 247.109 461.633 246.602 461.773 246.133C461.914 245.664 462.125 245.211 462.406 244.773C462.688 244.352 463.039 243.938 463.461 243.531C463.883 243.125 464.383 242.719 464.961 242.312C464.195 241.875 463.609 241.312 463.203 240.625C462.812 239.938 462.617 239.203 462.617 238.422C462.617 237.891 462.688 237.398 462.828 236.945C462.969 236.477 463.148 236.031 463.367 235.609C463.602 235.188 463.867 234.781 464.164 234.391C464.461 234 464.773 233.617 465.102 233.242C464.523 232.664 464.039 231.969 463.648 231.156C463.273 230.328 463.086 229.297 463.086 228.062C463.086 226.734 463.32 225.555 463.789 224.523C464.273 223.477 464.938 222.602 465.781 221.898C466.625 221.18 467.625 220.641 468.781 220.281C469.953 219.906 471.227 219.719 472.602 219.719C473.305 219.719 473.977 219.758 474.617 219.836C475.273 219.898 475.867 220.016 476.398 220.188H484.648V224.359H480.898ZM467.422 247.164C467.422 248.086 467.883 248.766 468.805 249.203C469.742 249.641 471.055 249.859 472.742 249.859C473.82 249.859 474.727 249.758 475.461 249.555C476.211 249.352 476.82 249.086 477.289 248.758C477.758 248.43 478.094 248.047 478.297 247.609C478.5 247.172 478.602 246.719 478.602 246.25C478.602 245.828 478.5 245.469 478.297 245.172C478.109 244.891 477.836 244.648 477.477 244.445C477.133 244.258 476.719 244.109 476.234 244C475.766 243.906 475.242 243.844 474.664 243.812L469.625 243.719C469.172 244.031 468.797 244.328 468.5 244.609C468.219 244.891 467.992 245.164 467.82 245.43C467.664 245.711 467.555 245.992 467.492 246.273C467.445 246.555 467.422 246.852 467.422 247.164ZM468.383 228.062C468.383 229.328 468.75 230.336 469.484 231.086C470.234 231.82 471.273 232.188 472.602 232.188C473.305 232.188 473.914 232.07 474.43 231.836C474.961 231.602 475.398 231.289 475.742 230.898C476.086 230.508 476.344 230.055 476.516 229.539C476.688 229.023 476.773 228.484 476.773 227.922C476.773 226.594 476.398 225.562 475.648 224.828C474.914 224.078 473.883 223.703 472.555 223.703C471.852 223.703 471.234 223.82 470.703 224.055C470.188 224.289 469.758 224.609 469.414 225.016C469.07 225.406 468.812 225.867 468.641 226.398C468.469 226.93 468.383 227.484 468.383 228.062ZM537.266 231.906C537.266 233.781 537 235.5 536.469 237.062C535.938 238.609 535.172 239.938 534.172 241.047C533.172 242.156 531.945 243.016 530.492 243.625C529.039 244.234 527.383 244.539 525.523 244.539C523.758 244.539 522.18 244.281 520.789 243.766C519.398 243.25 518.219 242.484 517.25 241.469C516.281 240.438 515.539 239.156 515.023 237.625C514.508 236.078 514.25 234.281 514.25 232.234C514.25 230.344 514.516 228.625 515.047 227.078C515.594 225.531 516.367 224.211 517.367 223.117C518.383 222.023 519.617 221.18 521.07 220.586C522.523 219.977 524.164 219.672 525.992 219.672C527.773 219.672 529.359 219.938 530.75 220.469C532.141 220.984 533.32 221.758 534.289 222.789C535.258 223.82 535.992 225.102 536.492 226.633C537.008 228.148 537.266 229.906 537.266 231.906ZM531.312 232.047C531.312 229.578 530.844 227.727 529.906 226.492C528.984 225.242 527.617 224.617 525.805 224.617C524.805 224.617 523.953 224.812 523.25 225.203C522.547 225.594 521.969 226.133 521.516 226.82C521.062 227.492 520.727 228.281 520.508 229.188C520.305 230.094 520.203 231.062 520.203 232.094C520.203 234.578 520.703 236.453 521.703 237.719C522.703 238.969 524.07 239.594 525.805 239.594C526.758 239.594 527.586 239.406 528.289 239.031C528.992 238.641 529.562 238.109 530 237.438C530.438 236.75 530.766 235.945 530.984 235.023C531.203 234.102 531.312 233.109 531.312 232.047ZM557.188 244L557.047 240.484C556.547 241.094 556.031 241.648 555.5 242.148C554.969 242.648 554.398 243.078 553.789 243.438C553.18 243.781 552.523 244.047 551.82 244.234C551.133 244.438 550.367 244.539 549.523 244.539C548.117 244.539 546.867 244.258 545.773 243.695C544.68 243.133 543.758 242.336 543.008 241.305C542.273 240.258 541.711 238.992 541.32 237.508C540.93 236.023 540.734 234.367 540.734 232.539C540.734 230.352 541.039 228.461 541.648 226.867C542.273 225.258 543.133 223.93 544.227 222.883C545.32 221.82 546.617 221.039 548.117 220.539C549.617 220.023 551.25 219.766 553.016 219.766C553.609 219.766 554.203 219.805 554.797 219.883C555.406 219.961 555.945 220.062 556.414 220.188V210.883H562.133V244H557.188ZM546.734 232.281C546.734 233.594 546.82 234.719 546.992 235.656C547.18 236.578 547.445 237.336 547.789 237.93C548.148 238.523 548.586 238.961 549.102 239.242C549.617 239.508 550.203 239.641 550.859 239.641C551.828 239.641 552.75 239.25 553.625 238.469C554.5 237.688 555.43 236.617 556.414 235.258V224.852C555.961 224.68 555.398 224.539 554.727 224.43C554.07 224.32 553.406 224.266 552.734 224.266C551.812 224.266 550.984 224.453 550.25 224.828C549.516 225.203 548.883 225.734 548.352 226.422C547.836 227.109 547.438 227.953 547.156 228.953C546.875 229.938 546.734 231.047 546.734 232.281ZM587.867 243.086C586.742 243.539 585.578 243.875 584.375 244.094C583.172 244.312 581.914 244.422 580.602 244.422C578.711 244.422 577.016 244.164 575.516 243.648C574.016 243.133 572.742 242.367 571.695 241.352C570.648 240.336 569.844 239.078 569.281 237.578C568.734 236.078 568.461 234.344 568.461 232.375C568.461 230.469 568.758 228.742 569.352 227.195C569.961 225.648 570.812 224.328 571.906 223.234C573 222.141 574.312 221.297 575.844 220.703C577.391 220.109 579.109 219.812 581 219.812C582.547 219.812 583.844 219.898 584.891 220.07C585.953 220.227 586.906 220.43 587.75 220.68V226.234C586.781 225.75 585.727 225.375 584.586 225.109C583.461 224.844 582.391 224.711 581.375 224.711C580.312 224.711 579.359 224.891 578.516 225.25C577.672 225.609 576.961 226.109 576.383 226.75C575.805 227.391 575.359 228.172 575.047 229.094C574.75 230 574.602 231 574.602 232.094C574.602 233.234 574.766 234.258 575.094 235.164C575.422 236.07 575.883 236.844 576.477 237.484C577.086 238.109 577.812 238.594 578.656 238.938C579.5 239.266 580.438 239.43 581.469 239.43C581.969 239.43 582.492 239.398 583.039 239.336C583.602 239.258 584.156 239.156 584.703 239.031C585.266 238.891 585.812 238.734 586.344 238.562C586.891 238.391 587.398 238.203 587.867 238V243.086ZM597.641 233.781V228.695H612.219V233.781H597.641ZM640.648 243.086C639.523 243.539 638.359 243.875 637.156 244.094C635.953 244.312 634.695 244.422 633.383 244.422C631.492 244.422 629.797 244.164 628.297 243.648C626.797 243.133 625.523 242.367 624.477 241.352C623.43 240.336 622.625 239.078 622.062 237.578C621.516 236.078 621.242 234.344 621.242 232.375C621.242 230.469 621.539 228.742 622.133 227.195C622.742 225.648 623.594 224.328 624.688 223.234C625.781 222.141 627.094 221.297 628.625 220.703C630.172 220.109 631.891 219.812 633.781 219.812C635.328 219.812 636.625 219.898 637.672 220.07C638.734 220.227 639.688 220.43 640.531 220.68V226.234C639.562 225.75 638.508 225.375 637.367 225.109C636.242 224.844 635.172 224.711 634.156 224.711C633.094 224.711 632.141 224.891 631.297 225.25C630.453 225.609 629.742 226.109 629.164 226.75C628.586 227.391 628.141 228.172 627.828 229.094C627.531 230 627.383 231 627.383 232.094C627.383 233.234 627.547 234.258 627.875 235.164C628.203 236.07 628.664 236.844 629.258 237.484C629.867 238.109 630.594 238.594 631.438 238.938C632.281 239.266 633.219 239.43 634.25 239.43C634.75 239.43 635.273 239.398 635.82 239.336C636.383 239.258 636.938 239.156 637.484 239.031C638.047 238.891 638.594 238.734 639.125 238.562C639.672 238.391 640.18 238.203 640.648 238V243.086ZM655.461 215.336H648.734V210.883H661.32V239.547H668.188V244H647.914V239.547H655.461V215.336ZM688.18 213.672C688.18 214.188 688.086 214.672 687.898 215.125C687.711 215.578 687.445 215.977 687.102 216.32C686.773 216.648 686.383 216.914 685.93 217.117C685.477 217.305 684.984 217.398 684.453 217.398C683.922 217.398 683.422 217.305 682.953 217.117C682.5 216.914 682.102 216.648 681.758 216.32C681.43 215.977 681.172 215.578 680.984 215.125C680.797 214.672 680.703 214.188 680.703 213.672C680.703 213.156 680.797 212.672 680.984 212.219C681.172 211.766 681.43 211.367 681.758 211.023C682.102 210.68 682.5 210.414 682.953 210.227C683.422 210.023 683.922 209.922 684.453 209.922C684.984 209.922 685.477 210.023 685.93 210.227C686.383 210.414 686.773 210.68 687.102 211.023C687.445 211.367 687.711 211.766 687.898 212.219C688.086 212.672 688.18 213.156 688.18 213.672ZM681.852 224.641H675.125V220.188H687.711V239.547H694.578V244H674.305V239.547H681.852V224.641Z" fill="black"/>
</svg>
